<svg width="25" height="25" viewBox="0 0 25 25" fill="none" xmlns="http://www.w3.org/2000/svg">
<g id="box" clip-path="url(#clip0_6192_24)">
<path id="Slected" fill-rule="evenodd" clip-rule="evenodd" d="M12.3447 24.1765C5.79854 24.1765 0.390869 18.7689 0.390869 12.2227C0.390869 5.67659 5.78936 0.268921 12.3355 0.268921C18.8816 0.268921 24.2985 5.67659 24.2985 12.2227C24.2985 18.7689 18.8908 24.1765 12.3447 24.1765ZM10.8757 18.2272C11.2154 18.2272 11.5092 18.0711 11.7295 17.7314L17.8992 8.06368C18.037 7.86169 18.1563 7.6138 18.1563 7.39346C18.1563 6.90686 17.7248 6.60388 17.2749 6.60388C17.0087 6.60388 16.7424 6.75996 16.5404 7.07212L10.8298 16.1522L7.79084 12.3421C7.55213 12.0391 7.30424 11.9289 7.01045 11.9289C6.56057 11.9289 6.18415 12.287 6.18415 12.7736C6.18415 13.0031 6.27596 13.251 6.43204 13.4438L9.97594 17.7406C10.2606 18.0894 10.536 18.2272 10.8757 18.2272Z" fill="#AD343E"/>
</g>
<defs>
<clipPath id="clip0_6192_24">
<rect width="23.9076" height="23.9076" fill="white" transform="translate(0.390869 0.268921)"/>
</clipPath>
</defs>
</svg>
